<?xml version="1.0" encoding="UTF-8" standalone="no"?>
<!-- Created with Inkscape (http://www.inkscape.org/) -->

<svg
   version="1.1"
   id="svg1"
   width="245.66667"
   height="50.413334"
   viewBox="0 0 245.66667 50.413334"
   sodipodi:docname="Logo_Hausenstein_neu.eps"
   xmlns:inkscape="http://www.inkscape.org/namespaces/inkscape"
   xmlns:sodipodi="http://sodipodi.sourceforge.net/DTD/sodipodi-0.dtd"
   xmlns="http://www.w3.org/2000/svg"
   xmlns:svg="http://www.w3.org/2000/svg">
  <defs
     id="defs1" />
  <sodipodi:namedview
     id="namedview1"
     pagecolor="#ffffff"
     bordercolor="#000000"
     borderopacity="0.25"
     inkscape:showpageshadow="2"
     inkscape:pageopacity="0.0"
     inkscape:pagecheckerboard="0"
     inkscape:deskcolor="#d1d1d1">
    <inkscape:page
       x="0"
       y="0"
       inkscape:label="1"
       id="page1"
       width="245.66667"
       height="50.413334"
       margin="0"
       bleed="0" />
  </sodipodi:namedview>
  <g
     id="g1"
     inkscape:groupmode="layer"
     inkscape:label="1">
    <g
       id="group-R5">
      <path
         id="path2"
         d="m 146.383,374.668 h 27.172 v -69.215 h 50.05 v 69.215 h 27.172 V 201.875 h -27.172 v 80.348 h -50.05 v -80.348 h -27.172 v 172.793"
         style="fill:#828980;fill-opacity:1;fill-rule:nonzero;stroke:none"
         transform="matrix(0.13333333,0,0,-0.13333333,0,50.413333)" />
      <path
         id="path3"
         d="m 377.344,266.25 -19.547,85.188 h -0.473 L 337.066,266.25 Z m -36.227,108.418 h 34.797 l 44.809,-172.793 h -28.364 l -10.484,42.348 h -49.812 l -10.969,-42.348 h -28.36 l 48.383,172.793"
         style="fill:#828980;fill-opacity:1;fill-rule:nonzero;stroke:none"
         transform="matrix(0.13333333,0,0,-0.13333333,0,50.413333)" />
      <path
         id="path4"
         d="M 489.133,374.668 V 250.762 c 0,-21.782 8.578,-31.465 25.027,-31.465 16.207,0 24.785,9.683 24.785,31.465 v 123.906 h 27.172 V 252.941 c 0,-39.933 -19.547,-54.453 -51.957,-54.453 -32.656,0 -52.195,14.52 -52.195,54.453 v 121.727 h 27.168"
         style="fill:#828980;fill-opacity:1;fill-rule:nonzero;stroke:none"
         transform="matrix(0.13333333,0,0,-0.13333333,0,50.413333)" />
      <path
         id="path5"
         d="M 638.813,255.355 V 251 c 0,-21.055 9.058,-31.703 27.89,-31.703 17.16,0 25.738,12.344 25.738,25.172 0,18.148 -9.058,26.136 -24.312,30.73 l -18.586,6.539 c -24.793,9.68 -35.516,22.746 -35.516,47.434 0,31.457 20.973,48.887 52.911,48.887 43.621,0 48.144,-27.594 48.144,-45.5 v -3.871 h -27.168 v 3.628 c 0,15.731 -6.914,24.926 -23.832,24.926 -11.68,0 -22.883,-6.535 -22.883,-24.926 0,-14.761 7.391,-22.265 25.504,-29.285 l 18.352,-6.777 c 24.07,-8.711 34.558,-22.02 34.558,-45.734 0,-36.786 -21.925,-52.032 -56.25,-52.032 -42.187,0 -51.718,28.551 -51.718,52.758 v 4.109 h 27.168"
         style="fill:#828980;fill-opacity:1;fill-rule:nonzero;stroke:none"
         transform="matrix(0.13333333,0,0,-0.13333333,0,50.413333)" />
      <path
         id="path6"
         d="m 768.246,374.668 h 92.004 v -23.23 h -64.828 v -47.922 -23.231 -55.176 h 66.73 v -23.234 h -93.906 v 172.793"
         style="fill:#828980;fill-opacity:1;fill-rule:nonzero;stroke:none"
         transform="matrix(0.13333333,0,0,-0.13333333,0,50.413333)" />
      <path
         id="path7"
         d="m 910.543,374.668 h 33.125 l 49.344,-128.75 h 0.468 v 128.75 h 25.74 V 201.875 h -33.122 l -49.336,132.133 h -0.477 V 201.875 h -25.742 v 172.793"
         style="fill:#828980;fill-opacity:1;fill-rule:nonzero;stroke:none"
         transform="matrix(0.13333333,0,0,-0.13333333,0,50.413333)" />
      <path
         id="path8"
         d="M 1093.6,255.355 V 251 c 0,-21.055 9.05,-31.703 27.88,-31.703 17.17,0 25.74,12.344 25.74,25.172 0,18.148 -9.05,26.136 -24.3,30.73 l -18.6,6.539 c -24.78,9.68 -35.52,22.746 -35.52,47.434 0,31.457 20.98,48.887 52.92,48.887 43.62,0 48.15,-27.594 48.15,-45.5 v -3.871 h -27.18 v 3.628 c 0,15.731 -6.9,24.926 -23.83,24.926 -11.68,0 -22.88,-6.535 -22.88,-24.926 0,-14.761 7.38,-22.265 25.5,-29.285 l 18.36,-6.777 c 24.07,-8.711 34.55,-22.02 34.55,-45.734 0,-36.786 -21.92,-52.032 -56.24,-52.032 -42.19,0 -51.73,28.551 -51.73,52.758 v 4.109 h 27.18"
         style="fill:#828980;fill-opacity:1;fill-rule:nonzero;stroke:none"
         transform="matrix(0.13333333,0,0,-0.13333333,0,50.413333)" />
      <path
         id="path9"
         d="m 1252.81,351.438 h -40.52 v 23.23 h 107.5 v -23.23 h -39.8 V 201.875 h -27.18 v 149.563"
         style="fill:#828980;fill-opacity:1;fill-rule:nonzero;stroke:none"
         transform="matrix(0.13333333,0,0,-0.13333333,0,50.413333)" />
      <path
         id="path10"
         d="m 1362.69,374.668 h 92 v -23.23 h -64.83 v -47.922 -23.231 -55.176 h 66.74 v -23.234 h -93.91 v 172.793"
         style="fill:#828980;fill-opacity:1;fill-rule:nonzero;stroke:none"
         transform="matrix(0.13333333,0,0,-0.13333333,0,50.413333)" />
      <path
         id="path11"
         d="m 1505.23,374.668 h 27.17 V 201.875 h -27.17 v 172.793"
         style="fill:#828980;fill-opacity:1;fill-rule:nonzero;stroke:none"
         transform="matrix(0.13333333,0,0,-0.13333333,0,50.413333)" />
      <path
         id="path12"
         d="m 1587.46,374.668 h 33.12 l 49.35,-128.75 h 0.47 v 128.75 h 25.74 V 201.875 h -33.13 l -49.33,132.133 h -0.48 V 201.875 h -25.74 v 172.793"
         style="fill:#828980;fill-opacity:1;fill-rule:nonzero;stroke:none"
         transform="matrix(0.13333333,0,0,-0.13333333,0,50.413333)" />
      <path
         id="path13"
         d="m 1842.51,156.348 v -2.813 H 0 v 5.625 h 1842.51 v -2.812 0"
         style="fill:#828980;fill-opacity:1;fill-rule:evenodd;stroke:none"
         transform="matrix(0.13333333,0,0,-0.13333333,0,50.413333)" />
      <path
         id="path14"
         d="m 807.926,287.063 55.219,32.136 v -63.957 l -55.219,31.821 v 0"
         style="fill:#f14c45;fill-opacity:1;fill-rule:evenodd;stroke:none"
         transform="matrix(0.13333333,0,0,-0.13333333,0,50.413333)" />
      <path
         id="path15"
         d="m 1407.86,288.313 c 0,15.593 12.48,28.074 28.06,28.074 15.3,0 28.09,-12.481 28.09,-28.074 0,-15.286 -12.79,-27.766 -28.09,-27.766 -15.27,0 -28.06,12.48 -28.06,27.766 v 0 0"
         style="fill:#f14c45;fill-opacity:1;fill-rule:evenodd;stroke:none"
         transform="matrix(0.13333333,0,0,-0.13333333,0,50.413333)" />
      <path
         id="path16"
         d="m 941.754,103.32 h 10.586 l 16.101,-70.527 h 0.235 l 16.105,70.527 h 10.586 L 974.664,21.1719 H 961.773 L 941.754,103.32"
         style="fill:#f14c45;fill-opacity:1;fill-rule:nonzero;stroke:none"
         transform="matrix(0.13333333,0,0,-0.13333333,0,50.413333)" />
      <path
         id="path17"
         d="m 1043.93,58.457 v 3.3399 c 0,6.8945 -2.18,15.0586 -10.69,15.0586 -10.13,0 -11.28,-12.4219 -11.28,-16.0938 V 58.457 Z m -22.31,-7.5976 c 0,-9.4336 0,-23.6914 11.84,-23.6914 9.21,0 10.47,9.6484 10.47,14.2578 h 9.67 c 0,-6.5625 -3.91,-21.8555 -20.71,-21.8555 -15.07,0 -21.4,10.4688 -21.4,31.6406 0,15.4102 2.99,33.2422 21.97,33.2422 18.87,0 20.6,-16.4453 20.6,-29.6875 v -3.9062 h -32.44"
         style="fill:#f14c45;fill-opacity:1;fill-rule:nonzero;stroke:none"
         transform="matrix(0.13333333,0,0,-0.13333333,0,50.413333)" />
      <path
         id="path18"
         d="m 1078.79,82.8516 h 9.67 v -9.2188 h 0.23 c 2.76,5.8789 6.44,10.8203 13.35,10.8203 1.95,0 3.34,-0.2343 4.25,-0.6836 v -9.4336 c -0.91,0.1172 -2.07,0.4493 -5.17,0.4493 -4.84,0 -12.66,-4.375 -12.66,-14.6094 V 21.1719 h -9.67 v 61.6797"
         style="fill:#f14c45;fill-opacity:1;fill-rule:nonzero;stroke:none"
         transform="matrix(0.13333333,0,0,-0.13333333,0,50.413333)" />
      <path
         id="path19"
         d="m 1148.51,27.8516 c 8.98,0 11.28,9.4336 11.28,25.3125 0,13.5742 -2.3,23.0078 -11.28,23.0078 -10.69,0 -12.42,-10.1172 -12.42,-24.1602 0,-11.9726 2.07,-24.1601 12.42,-24.1601 z m -21.51,55 h 9.21 v -7.5977 h 0.22 c 1.27,4.5899 6.68,9.1992 13.35,9.1992 14.61,0 20.14,-13.0078 20.14,-31.289 0,-14.043 -4.15,-33.5938 -20.14,-33.5938 -5.53,0 -10.7,3.3399 -12.89,8.6328 h -0.22 V 0.917969 H 1127 V 82.8516"
         style="fill:#f14c45;fill-opacity:1;fill-rule:nonzero;stroke:none"
         transform="matrix(0.13333333,0,0,-0.13333333,0,50.413333)" />
      <path
         id="path20"
         d="m 1222.72,54.7656 c -3.56,-3.789 -12.08,-4.5898 -16.46,-7.2461 -3.1,-1.9531 -4.71,-4.375 -4.71,-9.7851 0,-6.211 2.19,-10.5664 8.75,-10.5664 6.32,0 12.42,5.3906 12.42,11.7187 z m -29.8,9.4336 c 0,14.043 5.98,20.2539 20.71,20.2539 18.76,0 18.76,-11.2695 18.76,-17.7148 V 32.3438 c 0,-2.5391 0,-4.961 2.99,-4.961 1.26,0 1.83,0.2344 2.29,0.586 v -6.9141 c -0.68,-0.1172 -3.21,-0.5664 -5.63,-0.5664 -3.69,0 -8.29,0 -8.74,7.9297 h -0.24 c -3.1,-5.5078 -9.08,-8.8477 -14.84,-8.8477 -11.51,0 -16.8,6.8945 -16.8,17.9492 0,8.6328 3.68,14.6094 11.62,17.0313 l 13.01,3.9062 c 7.01,2.1875 7.01,4.1407 7.01,9.3164 0,5.7422 -3.45,9.0821 -9.89,9.0821 -10.59,0 -10.59,-9.8828 -10.59,-12.0703 v -0.586 h -9.66"
         style="fill:#f14c45;fill-opacity:1;fill-rule:nonzero;stroke:none"
         transform="matrix(0.13333333,0,0,-0.13333333,0,50.413333)" />
      <path
         id="path21"
         d="m 1288.99,64.082 c 0,5.9961 -2.42,12.7735 -9.79,12.7735 -5.97,0 -12.08,-2.9883 -12.08,-25.5274 0,-8.0664 0.12,-24.1601 11.74,-24.1601 8.28,0 10.13,8.7304 10.13,15.4101 h 9.67 c 0,-9.7851 -4.85,-23.0078 -20.26,-23.0078 -15.07,0 -21.4,10.4688 -21.4,31.6406 0,15.4102 3,33.2422 21.97,33.2422 16.81,0 19.69,-13.2226 19.69,-20.3711 h -9.67"
         style="fill:#f14c45;fill-opacity:1;fill-rule:nonzero;stroke:none"
         transform="matrix(0.13333333,0,0,-0.13333333,0,50.413333)" />
      <path
         id="path22"
         d="m 1368.83,21.1719 h -11.28 l -17.13,30.4883 -7.95,-9.668 V 21.1719 h -9.66 V 103.32 h 9.66 V 54.4336 h 0.23 l 21.63,28.418 h 11.28 l -18.75,-23.2422 21.97,-38.4375"
         style="fill:#f14c45;fill-opacity:1;fill-rule:nonzero;stroke:none"
         transform="matrix(0.13333333,0,0,-0.13333333,0,50.413333)" />
      <path
         id="path23"
         d="m 1428.66,21.1719 h -9.2 v 7.2461 h -0.24 c -2.54,-5.625 -8.98,-8.8477 -14.96,-8.8477 -16.22,0 -16.22,12.3047 -16.22,19.5508 v 43.7305 h 9.66 V 40.2734 c 0,-4.707 0.35,-12.4218 9.1,-12.4218 5.18,0 12.19,3.457 12.19,12.4218 v 42.5782 h 9.67 V 21.1719"
         style="fill:#f14c45;fill-opacity:1;fill-rule:nonzero;stroke:none"
         transform="matrix(0.13333333,0,0,-0.13333333,0,50.413333)" />
      <path
         id="path24"
         d="m 1455.45,82.8516 h 9.21 v -7.2461 h 0.23 c 2.54,5.625 8.98,8.8476 14.96,8.8476 16.23,0 16.23,-12.3047 16.23,-19.5508 V 21.1719 h -9.67 V 63.75 c 0,4.707 -0.35,12.4219 -9.09,12.4219 -5.19,0 -12.2,-3.4571 -12.2,-12.4219 V 21.1719 h -9.67 v 61.6797"
         style="fill:#f14c45;fill-opacity:1;fill-rule:nonzero;stroke:none"
         transform="matrix(0.13333333,0,0,-0.13333333,0,50.413333)" />
      <path
         id="path25"
         d="m 1530.7,52.0117 c 0,-10.0195 1.49,-22.5586 11.16,-22.5586 10.47,0 12.54,9.9024 12.54,22.5586 0,11.9727 -2.07,24.1602 -12.42,24.1602 -8.99,0 -11.28,-9.4336 -11.28,-24.1602 z m 32.78,-26.914 C 1563.48,6.67969 1554.98,0 1542.54,0 c -3.79,0 -18.63,0 -20.24,15.4297 h 9.66 c 0.47,-5.64454 4.84,-7.83204 9.9,-7.83204 12.42,0 11.96,9.55074 11.96,13.80864 v 8.0468 h -0.22 c -2.07,-5.1758 -7.83,-8.2812 -13.93,-8.2812 -17.95,0 -19.1,22.6758 -19.1,30.8398 0,16.6797 4.49,32.4414 20.14,32.4414 6.68,0 12.08,-4.6093 13.34,-9.4336 h 0.23 v 7.8321 h 9.2 V 25.0977"
         style="fill:#f14c45;fill-opacity:1;fill-rule:nonzero;stroke:none"
         transform="matrix(0.13333333,0,0,-0.13333333,0,50.413333)" />
      <path
         id="path26"
         d="m 1620.67,58.457 v 3.3399 c 0,6.8945 -2.19,15.0586 -10.7,15.0586 -10.12,0 -11.27,-12.4219 -11.27,-16.0938 V 58.457 Z m -22.33,-7.5976 c 0,-9.4336 0,-23.6914 11.86,-23.6914 9.2,0 10.47,9.6484 10.47,14.2578 h 9.67 c 0,-6.5625 -3.92,-21.8555 -20.73,-21.8555 -15.05,0 -21.38,10.4688 -21.38,31.6406 0,15.4102 2.99,33.2422 21.97,33.2422 18.87,0 20.59,-16.4453 20.59,-29.6875 v -3.9062 h -32.45"
         style="fill:#f14c45;fill-opacity:1;fill-rule:nonzero;stroke:none"
         transform="matrix(0.13333333,0,0,-0.13333333,0,50.413333)" />
      <path
         id="path27"
         d="m 1655.52,82.8516 h 9.21 v -7.2461 h 0.23 c 2.53,5.625 8.97,8.8476 14.95,8.8476 16.23,0 16.23,-12.3047 16.23,-19.5508 V 21.1719 h -9.67 V 63.75 c 0,4.707 -0.34,12.4219 -9.08,12.4219 -5.18,0 -12.21,-3.4571 -12.21,-12.4219 V 21.1719 h -9.66 v 61.6797"
         style="fill:#f14c45;fill-opacity:1;fill-rule:nonzero;stroke:none"
         transform="matrix(0.13333333,0,0,-0.13333333,0,50.413333)" />
    </g>
  </g>
</svg>
